<mxfile host="Electron" modified="2024-05-04T09:07:21.530Z" agent="Mozilla/5.0 (Windows NT 10.0; Win64; x64) AppleWebKit/537.36 (KHTML, like Gecko) draw.io/24.2.5 Chrome/120.0.6099.109 Electron/28.1.0 Safari/537.36" etag="BqgmDY09LWhPyXHEQeeE" version="24.2.5" type="device">
  <diagram id="FHB5dsRd4-pudnj3Haca" name="Pagina-1">
    <mxGraphModel dx="471" dy="275" grid="1" gridSize="10" guides="1" tooltips="1" connect="1" arrows="1" fold="1" page="1" pageScale="1" pageWidth="827" pageHeight="1169" math="0" shadow="0">
      <root>
        <mxCell id="0" />
        <mxCell id="1" parent="0" />
        <mxCell id="VbYMu8-JS8Zulu8OEEEb-21" value="&lt;font style=&quot;font-size: 8px;&quot;&gt;Ora&lt;/font&gt;" style="text;html=1;align=center;verticalAlign=middle;whiteSpace=wrap;rounded=1;strokeColor=none;glass=0;" parent="1" vertex="1">
          <mxGeometry x="315.56" y="282" width="50" height="15" as="geometry" />
        </mxCell>
        <mxCell id="VbYMu8-JS8Zulu8OEEEb-22" value="&lt;font style=&quot;font-size: 8px;&quot;&gt;Ora Fine&lt;/font&gt;" style="text;html=1;align=center;verticalAlign=middle;whiteSpace=wrap;rounded=1;strokeColor=none;glass=0;" parent="1" vertex="1">
          <mxGeometry x="430" y="359.75" width="42" height="19" as="geometry" />
        </mxCell>
        <mxCell id="VbYMu8-JS8Zulu8OEEEb-23" value="&lt;font style=&quot;font-size: 8px;&quot;&gt;Data&lt;/font&gt;" style="text;html=1;align=center;verticalAlign=middle;whiteSpace=wrap;rounded=1;strokeColor=none;glass=0;" parent="1" vertex="1">
          <mxGeometry x="315.56" y="269.44" width="50" height="15" as="geometry" />
        </mxCell>
        <mxCell id="VbYMu8-JS8Zulu8OEEEb-31" style="edgeStyle=orthogonalEdgeStyle;rounded=0;orthogonalLoop=1;jettySize=auto;html=1;exitX=0;exitY=0;exitDx=0;exitDy=0;endArrow=oval;endFill=0;" parent="1" edge="1">
          <mxGeometry relative="1" as="geometry">
            <mxPoint x="353.56" y="278.79999999999995" as="targetPoint" />
            <mxPoint x="372.94" y="278.79999999999995" as="sourcePoint" />
            <Array as="points" />
          </mxGeometry>
        </mxCell>
        <mxCell id="VbYMu8-JS8Zulu8OEEEb-32" style="edgeStyle=orthogonalEdgeStyle;rounded=0;orthogonalLoop=1;jettySize=auto;html=1;endArrow=oval;endFill=0;" parent="1" edge="1">
          <mxGeometry relative="1" as="geometry">
            <mxPoint x="353.56" y="291.91999999999996" as="targetPoint" />
            <mxPoint x="373.56" y="291.91999999999996" as="sourcePoint" />
            <Array as="points" />
          </mxGeometry>
        </mxCell>
        <mxCell id="VbYMu8-JS8Zulu8OEEEb-33" value="" style="endArrow=none;html=1;rounded=0;entryX=0.551;entryY=1.003;entryDx=0;entryDy=0;entryPerimeter=0;" parent="1" edge="1">
          <mxGeometry width="50" height="50" relative="1" as="geometry">
            <mxPoint x="383.06" y="317.53999999999996" as="sourcePoint" />
            <mxPoint x="383.06" y="294.48" as="targetPoint" />
          </mxGeometry>
        </mxCell>
        <mxCell id="VbYMu8-JS8Zulu8OEEEb-34" value="&lt;p style=&quot;line-height: 110%;&quot;&gt;&lt;font style=&quot;font-size: 7px;&quot;&gt;DataVisita&lt;/font&gt;&lt;/p&gt;" style="ellipse;whiteSpace=wrap;html=1;" parent="1" vertex="1">
          <mxGeometry x="365.56" y="274.41999999999996" width="36.12" height="20" as="geometry" />
        </mxCell>
        <mxCell id="VbYMu8-JS8Zulu8OEEEb-35" style="edgeStyle=orthogonalEdgeStyle;rounded=0;orthogonalLoop=1;jettySize=auto;html=1;exitX=1;exitY=0.5;exitDx=0;exitDy=0;endArrow=oval;endFill=0;" parent="1" edge="1">
          <mxGeometry relative="1" as="geometry">
            <mxPoint x="450.12" y="363.37" as="targetPoint" />
            <mxPoint x="449.99999999999994" y="343.385" as="sourcePoint" />
            <Array as="points">
              <mxPoint x="450.12" y="363.37" />
            </Array>
          </mxGeometry>
        </mxCell>
        <mxCell id="VbYMu8-JS8Zulu8OEEEb-36" value="&lt;font style=&quot;font-size: 8px;&quot;&gt;Durata&lt;/font&gt;" style="text;html=1;align=center;verticalAlign=middle;whiteSpace=wrap;rounded=1;strokeColor=none;glass=0;" parent="1" vertex="1">
          <mxGeometry x="362.31" y="361.75" width="50" height="17" as="geometry" />
        </mxCell>
        <mxCell id="VbYMu8-JS8Zulu8OEEEb-37" style="edgeStyle=orthogonalEdgeStyle;rounded=0;orthogonalLoop=1;jettySize=auto;html=1;exitX=1;exitY=0.5;exitDx=0;exitDy=0;endArrow=oval;endFill=0;" parent="1" edge="1">
          <mxGeometry relative="1" as="geometry">
            <mxPoint x="387.52000000000004" y="362.46000000000004" as="targetPoint" />
            <mxPoint x="387.11" y="342.03999999999996" as="sourcePoint" />
            <Array as="points">
              <mxPoint x="387.11" y="362.03999999999996" />
            </Array>
          </mxGeometry>
        </mxCell>
        <mxCell id="VbYMu8-JS8Zulu8OEEEb-38" value="&lt;span style=&quot;font-size: 8px;&quot;&gt;(1,N)&lt;/span&gt;" style="text;html=1;align=center;verticalAlign=middle;whiteSpace=wrap;rounded=1;strokeColor=none;glass=0;" parent="1" vertex="1">
          <mxGeometry x="270.00000000000006" y="310.7900000000001" width="22.5" height="6.75" as="geometry" />
        </mxCell>
        <mxCell id="VbYMu8-JS8Zulu8OEEEb-39" value="&lt;font style=&quot;font-size: 8px;&quot;&gt;(0,N)&lt;/font&gt;" style="text;html=1;align=center;verticalAlign=middle;whiteSpace=wrap;rounded=1;strokeColor=none;glass=0;" parent="1" vertex="1">
          <mxGeometry x="540" y="309.8699999999999" width="22.5" height="6.75" as="geometry" />
        </mxCell>
        <mxCell id="VbYMu8-JS8Zulu8OEEEb-40" value="" style="endArrow=none;html=1;rounded=0;exitX=0;exitY=0.5;exitDx=0;exitDy=0;entryX=1.001;entryY=0.437;entryDx=0;entryDy=0;entryPerimeter=0;" parent="1" source="VbYMu8-JS8Zulu8OEEEb-41" target="VbYMu8-JS8Zulu8OEEEb-52" edge="1">
          <mxGeometry width="50" height="50" relative="1" as="geometry">
            <mxPoint x="530.19" y="330.1" as="sourcePoint" />
            <mxPoint x="262" y="330.6" as="targetPoint" />
          </mxGeometry>
        </mxCell>
        <mxCell id="VbYMu8-JS8Zulu8OEEEb-41" value="Sostiene" style="shape=rhombus;perimeter=rhombusPerimeter;whiteSpace=wrap;html=1;align=center;" parent="1" vertex="1">
          <mxGeometry x="280" y="308.92" width="73.56" height="42.36" as="geometry" />
        </mxCell>
        <mxCell id="VbYMu8-JS8Zulu8OEEEb-42" value="" style="endArrow=none;html=1;rounded=0;entryX=1;entryY=0.5;entryDx=0;entryDy=0;exitX=0;exitY=0.5;exitDx=0;exitDy=0;" parent="1" source="VbYMu8-JS8Zulu8OEEEb-44" target="VbYMu8-JS8Zulu8OEEEb-41" edge="1">
          <mxGeometry width="50" height="50" relative="1" as="geometry">
            <mxPoint x="530.19" y="330.1" as="sourcePoint" />
            <mxPoint x="262" y="330.1" as="targetPoint" />
          </mxGeometry>
        </mxCell>
        <mxCell id="VbYMu8-JS8Zulu8OEEEb-43" value="" style="endArrow=none;html=1;rounded=0;entryX=1;entryY=0.5;entryDx=0;entryDy=0;exitX=0;exitY=0.5;exitDx=0;exitDy=0;" parent="1" source="VbYMu8-JS8Zulu8OEEEb-46" target="VbYMu8-JS8Zulu8OEEEb-44" edge="1">
          <mxGeometry width="50" height="50" relative="1" as="geometry">
            <mxPoint x="530.19" y="330.1" as="sourcePoint" />
            <mxPoint x="346" y="329.84000000000003" as="targetPoint" />
          </mxGeometry>
        </mxCell>
        <mxCell id="VbYMu8-JS8Zulu8OEEEb-44" value="Visita" style="whiteSpace=wrap;html=1;align=center;" parent="1" vertex="1">
          <mxGeometry x="370" y="317.1" width="90.38" height="26.28" as="geometry" />
        </mxCell>
        <mxCell id="VbYMu8-JS8Zulu8OEEEb-45" value="" style="endArrow=none;html=1;rounded=0;entryX=1;entryY=0.5;entryDx=0;entryDy=0;exitX=0;exitY=0.5;exitDx=0;exitDy=0;" parent="1" target="VbYMu8-JS8Zulu8OEEEb-46" edge="1">
          <mxGeometry width="50" height="50" relative="1" as="geometry">
            <mxPoint x="569.6200000000001" y="330.2351361867703" as="sourcePoint" />
            <mxPoint x="450" y="329.84000000000003" as="targetPoint" />
          </mxGeometry>
        </mxCell>
        <mxCell id="VbYMu8-JS8Zulu8OEEEb-46" value="Utilizza" style="shape=rhombus;perimeter=rhombusPerimeter;whiteSpace=wrap;html=1;align=center;" parent="1" vertex="1">
          <mxGeometry x="484" y="310.78999999999996" width="70" height="39.81" as="geometry" />
        </mxCell>
        <mxCell id="VbYMu8-JS8Zulu8OEEEb-47" value="&lt;span style=&quot;font-size: 8px;&quot;&gt;(1,1)&lt;/span&gt;" style="text;html=1;align=center;verticalAlign=middle;whiteSpace=wrap;rounded=1;strokeColor=none;glass=0;" parent="1" vertex="1">
          <mxGeometry x="340.00000000000006" y="310.7900000000001" width="22.5" height="6.75" as="geometry" />
        </mxCell>
        <mxCell id="VbYMu8-JS8Zulu8OEEEb-48" value="&lt;span style=&quot;font-size: 8px;&quot;&gt;(1,N)&lt;/span&gt;" style="text;html=1;align=center;verticalAlign=middle;whiteSpace=wrap;rounded=1;strokeColor=none;glass=0;" parent="1" vertex="1">
          <mxGeometry x="472.00000000000006" y="309.87000000000006" width="22.5" height="6.75" as="geometry" />
        </mxCell>
        <mxCell id="VbYMu8-JS8Zulu8OEEEb-49" style="edgeStyle=orthogonalEdgeStyle;rounded=0;orthogonalLoop=1;jettySize=auto;html=1;exitX=0.25;exitY=0;exitDx=0;exitDy=0;entryX=0.842;entryY=1.009;entryDx=0;entryDy=0;entryPerimeter=0;endArrow=oval;endFill=1;" parent="1" edge="1">
          <mxGeometry relative="1" as="geometry">
            <mxPoint x="413.69" y="317.1" as="sourcePoint" />
            <mxPoint x="416.69" y="304.1" as="targetPoint" />
          </mxGeometry>
        </mxCell>
        <mxCell id="VbYMu8-JS8Zulu8OEEEb-50" value="&lt;font style=&quot;font-size: 9px;&quot;&gt;Codice&lt;/font&gt;" style="text;html=1;align=center;verticalAlign=middle;whiteSpace=wrap;rounded=0;" parent="1" vertex="1">
          <mxGeometry x="395.19000000000005" y="284.4410116731517" width="40" height="17.314202334630348" as="geometry" />
        </mxCell>
        <mxCell id="VbYMu8-JS8Zulu8OEEEb-51" style="edgeStyle=orthogonalEdgeStyle;rounded=0;orthogonalLoop=1;jettySize=auto;html=1;exitX=0;exitY=0.5;exitDx=0;exitDy=0;endArrow=oval;endFill=0;" parent="1" edge="1">
          <mxGeometry relative="1" as="geometry">
            <mxPoint x="172" y="342.49" as="targetPoint" />
            <mxPoint x="192" y="339.60500000000013" as="sourcePoint" />
            <Array as="points">
              <mxPoint x="192" y="342.49" />
            </Array>
          </mxGeometry>
        </mxCell>
        <mxCell id="VbYMu8-JS8Zulu8OEEEb-52" value="Visitatore" style="whiteSpace=wrap;html=1;align=center;" parent="1" vertex="1">
          <mxGeometry x="192" y="312.49" width="60" height="40.01" as="geometry" />
        </mxCell>
        <mxCell id="VbYMu8-JS8Zulu8OEEEb-53" value="&lt;font style=&quot;font-size: 8px;&quot;&gt;Nome&lt;/font&gt;" style="text;html=1;align=center;verticalAlign=middle;whiteSpace=wrap;rounded=0;" parent="1" vertex="1">
          <mxGeometry x="192" y="280" width="25" height="10" as="geometry" />
        </mxCell>
        <mxCell id="VbYMu8-JS8Zulu8OEEEb-54" value="&lt;font style=&quot;font-size: 8px;&quot;&gt;Cognome&lt;/font&gt;" style="text;html=1;align=center;verticalAlign=middle;whiteSpace=wrap;rounded=0;" parent="1" vertex="1">
          <mxGeometry x="212" y="270" width="60" height="30" as="geometry" />
        </mxCell>
        <mxCell id="VbYMu8-JS8Zulu8OEEEb-57" style="edgeStyle=orthogonalEdgeStyle;rounded=0;orthogonalLoop=1;jettySize=auto;html=1;exitX=0.5;exitY=1;exitDx=0;exitDy=0;" parent="1" edge="1">
          <mxGeometry relative="1" as="geometry">
            <mxPoint x="683.99" y="294.5" as="sourcePoint" />
            <mxPoint x="683.99" y="294.5" as="targetPoint" />
          </mxGeometry>
        </mxCell>
        <mxCell id="VbYMu8-JS8Zulu8OEEEb-58" value="&lt;font style=&quot;font-size: 8px;&quot;&gt;CF&lt;/font&gt;" style="text;html=1;align=center;verticalAlign=middle;whiteSpace=wrap;rounded=0;" parent="1" vertex="1">
          <mxGeometry x="152" y="316.87" width="20" height="10" as="geometry" />
        </mxCell>
        <mxCell id="VbYMu8-JS8Zulu8OEEEb-59" style="edgeStyle=orthogonalEdgeStyle;rounded=0;orthogonalLoop=1;jettySize=auto;html=1;exitX=0;exitY=0;exitDx=0;exitDy=0;endArrow=oval;endFill=0;" parent="1" edge="1">
          <mxGeometry relative="1" as="geometry">
            <mxPoint x="202" y="294.49" as="targetPoint" />
            <mxPoint x="202" y="312.49" as="sourcePoint" />
            <Array as="points" />
          </mxGeometry>
        </mxCell>
        <mxCell id="VbYMu8-JS8Zulu8OEEEb-60" style="edgeStyle=orthogonalEdgeStyle;rounded=0;orthogonalLoop=1;jettySize=auto;html=1;exitX=0;exitY=0;exitDx=0;exitDy=0;endArrow=oval;endFill=0;" parent="1" edge="1">
          <mxGeometry relative="1" as="geometry">
            <mxPoint x="242" y="294.49" as="targetPoint" />
            <mxPoint x="242" y="312.49" as="sourcePoint" />
            <Array as="points" />
          </mxGeometry>
        </mxCell>
        <mxCell id="VbYMu8-JS8Zulu8OEEEb-61" value="&lt;font style=&quot;font-size: 8px;&quot;&gt;Email&lt;/font&gt;" style="text;html=1;align=center;verticalAlign=middle;whiteSpace=wrap;rounded=0;" parent="1" vertex="1">
          <mxGeometry x="142" y="338.49" width="30" height="7" as="geometry" />
        </mxCell>
        <mxCell id="VbYMu8-JS8Zulu8OEEEb-62" style="edgeStyle=orthogonalEdgeStyle;rounded=0;orthogonalLoop=1;jettySize=auto;html=1;exitX=0;exitY=0.25;exitDx=0;exitDy=0;endArrow=oval;endFill=1;" parent="1" source="VbYMu8-JS8Zulu8OEEEb-52" edge="1">
          <mxGeometry relative="1" as="geometry">
            <mxPoint x="172" y="322.49" as="targetPoint" />
            <mxPoint x="127" y="301.25" as="sourcePoint" />
            <Array as="points" />
          </mxGeometry>
        </mxCell>
        <mxCell id="VbYMu8-JS8Zulu8OEEEb-63" style="edgeStyle=orthogonalEdgeStyle;rounded=0;orthogonalLoop=1;jettySize=auto;html=1;exitX=1;exitY=0.5;exitDx=0;exitDy=0;endArrow=oval;endFill=0;" parent="1" edge="1">
          <mxGeometry relative="1" as="geometry">
            <mxPoint x="271.88" y="345.99" as="targetPoint" />
            <mxPoint x="252" y="345.99" as="sourcePoint" />
            <Array as="points">
              <mxPoint x="266.88" y="345.99" />
            </Array>
          </mxGeometry>
        </mxCell>
        <mxCell id="VbYMu8-JS8Zulu8OEEEb-64" value="&lt;font style=&quot;font-size: 8px;&quot;&gt;Visite&lt;/font&gt;&lt;div style=&quot;line-height: 30%;&quot;&gt;&lt;font style=&quot;font-size: 8px;&quot;&gt;E&lt;/font&gt;&lt;span style=&quot;font-size: 8px; background-color: initial;&quot;&gt;ffettuate&lt;/span&gt;&lt;/div&gt;" style="text;html=1;align=center;verticalAlign=middle;whiteSpace=wrap;rounded=1;strokeColor=none;" parent="1" vertex="1">
          <mxGeometry x="272" y="335.49" width="37" height="21" as="geometry" />
        </mxCell>
        <mxCell id="VbYMu8-JS8Zulu8OEEEb-8" style="edgeStyle=orthogonalEdgeStyle;rounded=0;orthogonalLoop=1;jettySize=auto;html=1;exitX=0.5;exitY=1;exitDx=0;exitDy=0;" parent="1" edge="1">
          <mxGeometry relative="1" as="geometry">
            <mxPoint x="701.99" y="293.59000000000003" as="sourcePoint" />
            <mxPoint x="701.99" y="293.59000000000003" as="targetPoint" />
          </mxGeometry>
        </mxCell>
        <mxCell id="VbYMu8-JS8Zulu8OEEEb-16" value="Oggetti Informatici" style="whiteSpace=wrap;html=1;align=center;" parent="1" vertex="1">
          <mxGeometry x="564.37" y="316.28" width="100" height="35" as="geometry" />
        </mxCell>
        <mxCell id="VbYMu8-JS8Zulu8OEEEb-18" value="&lt;font style=&quot;font-size: 8px;&quot;&gt;Misura&lt;/font&gt;" style="text;html=1;align=center;verticalAlign=middle;whiteSpace=wrap;rounded=1;strokeColor=none;" parent="1" vertex="1">
          <mxGeometry x="680.49" y="326.03" width="50" height="21" as="geometry" />
        </mxCell>
        <mxCell id="VbYMu8-JS8Zulu8OEEEb-19" value="&lt;font style=&quot;font-size: 8px;&quot;&gt;Modello&lt;/font&gt;" style="text;html=1;align=center;verticalAlign=middle;whiteSpace=wrap;rounded=1;strokeColor=none;" parent="1" vertex="1">
          <mxGeometry x="640.62" y="278.78999999999996" width="40" height="20" as="geometry" />
        </mxCell>
        <mxCell id="VbYMu8-JS8Zulu8OEEEb-20" value="&lt;font style=&quot;font-size: 8px;&quot;&gt;Marca&lt;/font&gt;" style="text;html=1;align=center;verticalAlign=middle;whiteSpace=wrap;rounded=1;strokeColor=none;glass=0;" parent="1" vertex="1">
          <mxGeometry x="601.25" y="281.28999999999996" width="50" height="15" as="geometry" />
        </mxCell>
        <mxCell id="VbYMu8-JS8Zulu8OEEEb-24" style="edgeStyle=orthogonalEdgeStyle;rounded=0;orthogonalLoop=1;jettySize=auto;html=1;exitX=0;exitY=0;exitDx=0;exitDy=0;endArrow=oval;endFill=1;" parent="1" edge="1">
          <mxGeometry relative="1" as="geometry">
            <mxPoint x="569.37" y="298.28" as="targetPoint" />
            <mxPoint x="569.37" y="316.28" as="sourcePoint" />
            <Array as="points" />
          </mxGeometry>
        </mxCell>
        <mxCell id="VbYMu8-JS8Zulu8OEEEb-25" value="&lt;font style=&quot;font-size: 8px;&quot;&gt;Numero di serie&lt;/font&gt;" style="text;html=1;align=center;verticalAlign=middle;whiteSpace=wrap;rounded=1;strokeColor=none;glass=0;" parent="1" vertex="1">
          <mxGeometry x="540" y="285.03999999999996" width="65.62" height="7.5" as="geometry" />
        </mxCell>
        <mxCell id="VbYMu8-JS8Zulu8OEEEb-26" style="edgeStyle=orthogonalEdgeStyle;rounded=0;orthogonalLoop=1;jettySize=auto;html=1;exitX=0;exitY=0;exitDx=0;exitDy=0;endArrow=oval;endFill=0;" parent="1" edge="1">
          <mxGeometry relative="1" as="geometry">
            <mxPoint x="626.37" y="298.28" as="targetPoint" />
            <mxPoint x="626.37" y="316.28" as="sourcePoint" />
            <Array as="points" />
          </mxGeometry>
        </mxCell>
        <mxCell id="VbYMu8-JS8Zulu8OEEEb-27" style="edgeStyle=orthogonalEdgeStyle;rounded=0;orthogonalLoop=1;jettySize=auto;html=1;exitX=0;exitY=0;exitDx=0;exitDy=0;endArrow=oval;endFill=0;" parent="1" edge="1">
          <mxGeometry relative="1" as="geometry">
            <mxPoint x="658.12" y="298.28" as="targetPoint" />
            <mxPoint x="658.12" y="316.28" as="sourcePoint" />
            <Array as="points" />
          </mxGeometry>
        </mxCell>
        <mxCell id="VbYMu8-JS8Zulu8OEEEb-28" style="edgeStyle=orthogonalEdgeStyle;rounded=0;orthogonalLoop=1;jettySize=auto;html=1;exitX=1;exitY=0.5;exitDx=0;exitDy=0;endArrow=oval;endFill=0;" parent="1" edge="1">
          <mxGeometry relative="1" as="geometry">
            <mxPoint x="664.37" y="338.03" as="sourcePoint" />
            <mxPoint x="687.49" y="338.03" as="targetPoint" />
          </mxGeometry>
        </mxCell>
        <mxCell id="VbYMu8-JS8Zulu8OEEEb-29" style="edgeStyle=orthogonalEdgeStyle;rounded=0;orthogonalLoop=1;jettySize=auto;html=1;exitX=1;exitY=0.5;exitDx=0;exitDy=0;endArrow=oval;endFill=0;" parent="1" edge="1">
          <mxGeometry relative="1" as="geometry">
            <mxPoint x="664.37" y="319.40999999999997" as="sourcePoint" />
            <mxPoint x="687.49" y="319.40999999999997" as="targetPoint" />
          </mxGeometry>
        </mxCell>
        <mxCell id="VbYMu8-JS8Zulu8OEEEb-30" value="&lt;font style=&quot;font-size: 8px;&quot;&gt;Tecnologia&lt;/font&gt;" style="text;html=1;align=center;verticalAlign=middle;whiteSpace=wrap;rounded=1;strokeColor=none;" parent="1" vertex="1">
          <mxGeometry x="689.37" y="308.40999999999997" width="46" height="19" as="geometry" />
        </mxCell>
      </root>
    </mxGraphModel>
  </diagram>
</mxfile>
